<mxfile host="app.diagrams.net" modified="2021-06-09T05:56:34.228Z" agent="5.0 (Windows NT 10.0; Win64; x64) AppleWebKit/537.36 (KHTML, like Gecko) Chrome/90.0.4430.85 Safari/537.36" etag="-oeIWZn9H55QlNU2KmIu" version="14.7.6" type="github">
  <diagram name="Page-1" id="e7e014a7-5840-1c2e-5031-d8a46d1fe8dd">
    <mxGraphModel dx="1344" dy="745" grid="1" gridSize="10" guides="1" tooltips="1" connect="1" arrows="1" fold="1" page="1" pageScale="1" pageWidth="1169" pageHeight="826" background="none" math="0" shadow="0">
      <root>
        <mxCell id="0" />
        <mxCell id="1" parent="0" />
        <mxCell id="jjocSROBNCPPTaDp25RM-99" value="" style="group" vertex="1" connectable="0" parent="1">
          <mxGeometry x="1.25" y="40" width="1152.5" height="650" as="geometry" />
        </mxCell>
        <mxCell id="jjocSROBNCPPTaDp25RM-41" value="" style="rounded=1;whiteSpace=wrap;html=1;fillColor=#dae8fc;strokeColor=#6c8ebf;" vertex="1" parent="jjocSROBNCPPTaDp25RM-99">
          <mxGeometry x="13.75" width="1138.75" height="650" as="geometry" />
        </mxCell>
        <mxCell id="jjocSROBNCPPTaDp25RM-85" value="" style="rounded=1;whiteSpace=wrap;html=1;dashed=1;strokeWidth=3;fillColor=none;strokeColor=#FF3333;" vertex="1" parent="jjocSROBNCPPTaDp25RM-99">
          <mxGeometry x="270.6328932261768" y="10" width="836.7393800229621" height="350" as="geometry" />
        </mxCell>
        <mxCell id="jjocSROBNCPPTaDp25RM-49" value="" style="group" vertex="1" connectable="0" parent="jjocSROBNCPPTaDp25RM-99">
          <mxGeometry x="50.99" y="30" width="105.64" height="570" as="geometry" />
        </mxCell>
        <mxCell id="jjocSROBNCPPTaDp25RM-48" value="" style="rounded=1;whiteSpace=wrap;html=1;fillColor=none;dashed=1;strokeWidth=3;" vertex="1" parent="jjocSROBNCPPTaDp25RM-49">
          <mxGeometry width="105.63999999999999" height="570" as="geometry" />
        </mxCell>
        <mxCell id="jjocSROBNCPPTaDp25RM-42" value="MSTA" style="points=[[0,0,0],[0.25,0,0],[0.5,0,0],[0.75,0,0],[1,0,0],[0,1,0],[0.25,1,0],[0.5,1,0],[0.75,1,0],[1,1,0],[0,0.25,0],[0,0.5,0],[0,0.75,0],[1,0.25,0],[1,0.5,0],[1,0.75,0]];outlineConnect=0;fontColor=#232F3E;gradientColor=#F54749;gradientDirection=north;fillColor=#C7131F;strokeColor=#ffffff;dashed=0;verticalLabelPosition=bottom;verticalAlign=top;align=center;html=1;fontSize=12;fontStyle=0;aspect=fixed;shape=mxgraph.aws4.resourceIcon;resIcon=mxgraph.aws4.mobile;" vertex="1" parent="jjocSROBNCPPTaDp25RM-49">
          <mxGeometry x="22.487722772277227" y="10" width="52.98264871839313" height="52.98264871839313" as="geometry" />
        </mxCell>
        <mxCell id="jjocSROBNCPPTaDp25RM-46" value="CRM" style="points=[[0.35,0,0],[0.98,0.51,0],[1,0.71,0],[0.67,1,0],[0,0.795,0],[0,0.65,0]];verticalLabelPosition=bottom;html=1;verticalAlign=top;aspect=fixed;align=center;pointerEvents=1;shape=mxgraph.cisco19.user;fillColor=#005073;strokeColor=none;" vertex="1" parent="jjocSROBNCPPTaDp25RM-49">
          <mxGeometry x="22.487722772277227" y="109.99999999999999" width="45.67469717102856" height="45.67469717102856" as="geometry" />
        </mxCell>
        <mxCell id="jjocSROBNCPPTaDp25RM-47" value="RIM" style="verticalLabelPosition=bottom;aspect=fixed;html=1;verticalAlign=top;strokeColor=none;align=center;outlineConnect=0;shape=mxgraph.citrix.tablet_2;" vertex="1" parent="jjocSROBNCPPTaDp25RM-49">
          <mxGeometry x="20.395841584158415" y="210" width="47.50168505786971" height="49.82195967415795" as="geometry" />
        </mxCell>
        <mxCell id="jjocSROBNCPPTaDp25RM-58" value="MTPOS" style="points=[];aspect=fixed;html=1;align=center;shadow=0;dashed=0;image;image=img/lib/allied_telesis/security/POS.svg;strokeWidth=3;" vertex="1" parent="jjocSROBNCPPTaDp25RM-49">
          <mxGeometry x="17.362613861386162" y="310" width="61.93488936391473" height="65.77156392628113" as="geometry" />
        </mxCell>
        <mxCell id="jjocSROBNCPPTaDp25RM-66" value="eShop" style="aspect=fixed;html=1;points=[];align=center;image;fontSize=12;image=img/lib/azure2/general/Browser.svg;dashed=1;strokeWidth=3;" vertex="1" parent="jjocSROBNCPPTaDp25RM-49">
          <mxGeometry x="18.82693069306928" y="439.99999999999994" width="59.37710632233713" height="47.50168505786971" as="geometry" />
        </mxCell>
        <mxCell id="jjocSROBNCPPTaDp25RM-50" value="OMS" style="outlineConnect=0;dashed=0;verticalLabelPosition=bottom;verticalAlign=top;align=center;html=1;shape=mxgraph.aws3.ec2;fillColor=#F58534;gradientColor=none;strokeWidth=3;" vertex="1" parent="jjocSROBNCPPTaDp25RM-99">
          <mxGeometry x="385.6845579793341" y="220" width="80.01320321469575" height="93" as="geometry" />
        </mxCell>
        <mxCell id="jjocSROBNCPPTaDp25RM-52" value="MEC" style="outlineConnect=0;dashed=0;verticalLabelPosition=bottom;verticalAlign=top;align=center;html=1;shape=mxgraph.aws3.data_pipeline;fillColor=#F58534;gradientColor=none;strokeWidth=3;" vertex="1" parent="jjocSROBNCPPTaDp25RM-99">
          <mxGeometry x="312.46986222732494" y="30" width="70.59988518943743" height="81" as="geometry" />
        </mxCell>
        <mxCell id="jjocSROBNCPPTaDp25RM-54" style="edgeStyle=orthogonalEdgeStyle;rounded=0;orthogonalLoop=1;jettySize=auto;html=1;startArrow=classic;startFill=1;exitX=0.5;exitY=0;exitDx=0;exitDy=0;exitPerimeter=0;" edge="1" parent="jjocSROBNCPPTaDp25RM-99" source="jjocSROBNCPPTaDp25RM-50" target="jjocSROBNCPPTaDp25RM-52">
          <mxGeometry relative="1" as="geometry">
            <Array as="points">
              <mxPoint x="425.4296785304248" y="160" />
              <mxPoint x="348.0312858783008" y="160" />
            </Array>
          </mxGeometry>
        </mxCell>
        <mxCell id="jjocSROBNCPPTaDp25RM-53" style="edgeStyle=orthogonalEdgeStyle;rounded=0;orthogonalLoop=1;jettySize=auto;html=1;" edge="1" parent="jjocSROBNCPPTaDp25RM-99" source="jjocSROBNCPPTaDp25RM-48" target="jjocSROBNCPPTaDp25RM-50">
          <mxGeometry relative="1" as="geometry">
            <Array as="points">
              <mxPoint x="199" y="270" />
              <mxPoint x="199" y="270" />
            </Array>
          </mxGeometry>
        </mxCell>
        <mxCell id="jjocSROBNCPPTaDp25RM-56" value="Subscribe &lt;br&gt;Singtel Red GLP" style="edgeLabel;html=1;align=center;verticalAlign=middle;resizable=0;points=[];" vertex="1" connectable="0" parent="jjocSROBNCPPTaDp25RM-53">
          <mxGeometry x="-0.1937" relative="1" as="geometry">
            <mxPoint x="1" y="-20" as="offset" />
          </mxGeometry>
        </mxCell>
        <mxCell id="jjocSROBNCPPTaDp25RM-55" value="Red Adhoc Benefit BPT" style="outlineConnect=0;dashed=0;verticalLabelPosition=bottom;verticalAlign=top;align=center;html=1;shape=mxgraph.aws3.elasticsearch_service;fillColor=#F58534;gradientColor=none;strokeWidth=3;" vertex="1" parent="jjocSROBNCPPTaDp25RM-99">
          <mxGeometry x="437.9807692307692" y="20" width="70.59988518943743" height="81" as="geometry" />
        </mxCell>
        <mxCell id="jjocSROBNCPPTaDp25RM-61" style="edgeStyle=orthogonalEdgeStyle;rounded=0;orthogonalLoop=1;jettySize=auto;html=1;startArrow=classic;startFill=1;" edge="1" parent="jjocSROBNCPPTaDp25RM-99" source="jjocSROBNCPPTaDp25RM-50" target="jjocSROBNCPPTaDp25RM-55">
          <mxGeometry relative="1" as="geometry" />
        </mxCell>
        <mxCell id="jjocSROBNCPPTaDp25RM-83" style="edgeStyle=orthogonalEdgeStyle;rounded=0;orthogonalLoop=1;jettySize=auto;html=1;entryX=0.99;entryY=0.829;entryDx=0;entryDy=0;entryPerimeter=0;startArrow=none;startFill=0;" edge="1" parent="jjocSROBNCPPTaDp25RM-99" source="jjocSROBNCPPTaDp25RM-57" target="jjocSROBNCPPTaDp25RM-48">
          <mxGeometry relative="1" as="geometry" />
        </mxCell>
        <mxCell id="jjocSROBNCPPTaDp25RM-84" value="Upfront Instant Voucher&lt;br&gt;Customer Tagging" style="edgeLabel;html=1;align=center;verticalAlign=middle;resizable=0;points=[];" vertex="1" connectable="0" parent="jjocSROBNCPPTaDp25RM-83">
          <mxGeometry x="0.1792" y="-1" relative="1" as="geometry">
            <mxPoint as="offset" />
          </mxGeometry>
        </mxCell>
        <mxCell id="jjocSROBNCPPTaDp25RM-57" value="LMS/Rewards Platform" style="outlineConnect=0;dashed=0;verticalLabelPosition=bottom;verticalAlign=top;align=center;html=1;shape=mxgraph.aws3.search_documents;fillColor=#F58534;gradientColor=none;strokeWidth=3;" vertex="1" parent="jjocSROBNCPPTaDp25RM-99">
          <mxGeometry x="394.3134328358209" y="470.75" width="62.75545350172216" height="63" as="geometry" />
        </mxCell>
        <mxCell id="jjocSROBNCPPTaDp25RM-92" value="API Real Time Enroll After Order Complete" style="edgeStyle=orthogonalEdgeStyle;rounded=0;orthogonalLoop=1;jettySize=auto;html=1;startArrow=none;startFill=0;" edge="1" parent="jjocSROBNCPPTaDp25RM-99" source="jjocSROBNCPPTaDp25RM-50" target="jjocSROBNCPPTaDp25RM-57">
          <mxGeometry relative="1" as="geometry" />
        </mxCell>
        <mxCell id="jjocSROBNCPPTaDp25RM-72" style="edgeStyle=orthogonalEdgeStyle;rounded=0;orthogonalLoop=1;jettySize=auto;html=1;startArrow=none;startFill=0;" edge="1" parent="jjocSROBNCPPTaDp25RM-99" source="jjocSROBNCPPTaDp25RM-59" target="jjocSROBNCPPTaDp25RM-57">
          <mxGeometry relative="1" as="geometry" />
        </mxCell>
        <mxCell id="jjocSROBNCPPTaDp25RM-73" value="Billing File Extraction" style="edgeLabel;html=1;align=center;verticalAlign=middle;resizable=0;points=[];" vertex="1" connectable="0" parent="jjocSROBNCPPTaDp25RM-72">
          <mxGeometry x="0.1111" relative="1" as="geometry">
            <mxPoint as="offset" />
          </mxGeometry>
        </mxCell>
        <mxCell id="jjocSROBNCPPTaDp25RM-59" value="ODS" style="outlineConnect=0;dashed=0;verticalLabelPosition=bottom;verticalAlign=top;align=center;html=1;shape=mxgraph.aws3.kinesis_firehose;fillColor=#F58534;gradientColor=none;strokeWidth=3;" vertex="1" parent="jjocSROBNCPPTaDp25RM-99">
          <mxGeometry x="807.9764638346728" y="470" width="62.75545350172216" height="64.5" as="geometry" />
        </mxCell>
        <mxCell id="jjocSROBNCPPTaDp25RM-90" style="edgeStyle=orthogonalEdgeStyle;rounded=0;orthogonalLoop=1;jettySize=auto;html=1;entryX=0.5;entryY=0;entryDx=0;entryDy=0;entryPerimeter=0;startArrow=none;startFill=0;exitX=1;exitY=0.79;exitDx=0;exitDy=0;exitPerimeter=0;" edge="1" parent="jjocSROBNCPPTaDp25RM-99" source="jjocSROBNCPPTaDp25RM-50" target="jjocSROBNCPPTaDp25RM-59">
          <mxGeometry relative="1" as="geometry">
            <Array as="points">
              <mxPoint x="605.3286452353618" y="294" />
              <mxPoint x="605.3286452353618" y="420" />
              <mxPoint x="839.6156716417911" y="420" />
            </Array>
          </mxGeometry>
        </mxCell>
        <mxCell id="jjocSROBNCPPTaDp25RM-91" value="Ordering Data Daily Sync" style="edgeLabel;html=1;align=center;verticalAlign=middle;resizable=0;points=[];" vertex="1" connectable="0" parent="jjocSROBNCPPTaDp25RM-90">
          <mxGeometry x="0.0315" relative="1" as="geometry">
            <mxPoint y="-30" as="offset" />
          </mxGeometry>
        </mxCell>
        <mxCell id="jjocSROBNCPPTaDp25RM-62" value="BCC CM" style="outlineConnect=0;dashed=0;verticalLabelPosition=bottom;verticalAlign=top;align=center;html=1;shape=mxgraph.aws3.athena;fillColor=#F58534;gradientColor=none;strokeWidth=3;" vertex="1" parent="jjocSROBNCPPTaDp25RM-99">
          <mxGeometry x="635.6604477611941" y="20" width="80.01320321469575" height="76.5" as="geometry" />
        </mxCell>
        <mxCell id="jjocSROBNCPPTaDp25RM-81" style="edgeStyle=orthogonalEdgeStyle;rounded=0;orthogonalLoop=1;jettySize=auto;html=1;exitX=1;exitY=0.21;exitDx=0;exitDy=0;exitPerimeter=0;entryX=0;entryY=0.39;entryDx=0;entryDy=0;entryPerimeter=0;startArrow=classic;startFill=1;" edge="1" parent="jjocSROBNCPPTaDp25RM-99" source="jjocSROBNCPPTaDp25RM-50" target="jjocSROBNCPPTaDp25RM-62">
          <mxGeometry relative="1" as="geometry" />
        </mxCell>
        <mxCell id="jjocSROBNCPPTaDp25RM-93" value="Red API" style="edgeLabel;html=1;align=center;verticalAlign=middle;resizable=0;points=[];" vertex="1" connectable="0" parent="jjocSROBNCPPTaDp25RM-81">
          <mxGeometry x="-0.0869" y="2" relative="1" as="geometry">
            <mxPoint as="offset" />
          </mxGeometry>
        </mxCell>
        <mxCell id="jjocSROBNCPPTaDp25RM-64" value="BCC RLC" style="outlineConnect=0;dashed=0;verticalLabelPosition=bottom;verticalAlign=top;align=center;html=1;shape=mxgraph.aws3.emr_cluster;fillColor=#F58534;gradientColor=none;strokeWidth=3;" vertex="1" parent="jjocSROBNCPPTaDp25RM-99">
          <mxGeometry x="646.6426521239954" y="250" width="58.048794489093" height="63" as="geometry" />
        </mxCell>
        <mxCell id="jjocSROBNCPPTaDp25RM-88" style="edgeStyle=orthogonalEdgeStyle;rounded=0;orthogonalLoop=1;jettySize=auto;html=1;startArrow=none;startFill=0;" edge="1" parent="jjocSROBNCPPTaDp25RM-99" source="jjocSROBNCPPTaDp25RM-62" target="jjocSROBNCPPTaDp25RM-64">
          <mxGeometry relative="1" as="geometry" />
        </mxCell>
        <mxCell id="jjocSROBNCPPTaDp25RM-89" value="GLP Propagation" style="edgeLabel;html=1;align=center;verticalAlign=middle;resizable=0;points=[];" vertex="1" connectable="0" parent="jjocSROBNCPPTaDp25RM-88">
          <mxGeometry x="-0.2899" relative="1" as="geometry">
            <mxPoint as="offset" />
          </mxGeometry>
        </mxCell>
        <mxCell id="jjocSROBNCPPTaDp25RM-69" style="edgeStyle=orthogonalEdgeStyle;rounded=0;orthogonalLoop=1;jettySize=auto;html=1;startArrow=classic;startFill=1;" edge="1" parent="jjocSROBNCPPTaDp25RM-99" source="jjocSROBNCPPTaDp25RM-67" target="jjocSROBNCPPTaDp25RM-59">
          <mxGeometry relative="1" as="geometry">
            <Array as="points">
              <mxPoint x="906.5548220436281" y="420" />
              <mxPoint x="839.6156716417911" y="420" />
            </Array>
          </mxGeometry>
        </mxCell>
        <mxCell id="jjocSROBNCPPTaDp25RM-86" value="Billing Data Daily Sync" style="edgeLabel;html=1;align=center;verticalAlign=middle;resizable=0;points=[];" vertex="1" connectable="0" parent="jjocSROBNCPPTaDp25RM-69">
          <mxGeometry x="0.1569" y="1" relative="1" as="geometry">
            <mxPoint x="23" y="-31" as="offset" />
          </mxGeometry>
        </mxCell>
        <mxCell id="jjocSROBNCPPTaDp25RM-67" value="ABP / TC / Invoicing" style="outlineConnect=0;dashed=0;verticalLabelPosition=bottom;verticalAlign=top;align=center;html=1;shape=mxgraph.aws3.redshift;fillColor=#2E73B8;gradientColor=none;strokeWidth=3;" vertex="1" parent="jjocSROBNCPPTaDp25RM-99">
          <mxGeometry x="878.5763490241102" y="244" width="70.59988518943743" height="75" as="geometry" />
        </mxCell>
        <mxCell id="jjocSROBNCPPTaDp25RM-68" style="edgeStyle=orthogonalEdgeStyle;rounded=0;orthogonalLoop=1;jettySize=auto;html=1;startArrow=classic;startFill=1;" edge="1" parent="jjocSROBNCPPTaDp25RM-99" source="jjocSROBNCPPTaDp25RM-64" target="jjocSROBNCPPTaDp25RM-67">
          <mxGeometry relative="1" as="geometry" />
        </mxCell>
        <mxCell id="jjocSROBNCPPTaDp25RM-95" value="&lt;h1&gt;Billing Logic&lt;/h1&gt;&lt;p&gt;At Bill Cycle Date&lt;/p&gt;&lt;p&gt;1. if avg(6mths bill amt) &amp;gt; $250 then waive member fee&lt;/p&gt;&lt;p&gt;2. if avg(6mths bill amt) &amp;lt;$250, then charge Red Member fee&lt;/p&gt;" style="text;html=1;spacing=5;spacingTop=-20;whiteSpace=wrap;overflow=hidden;rounded=0;dashed=1;fillColor=#fad9d5;strokeColor=#ae4132;" vertex="1" parent="jjocSROBNCPPTaDp25RM-99">
          <mxGeometry x="730.8395522388059" y="40" width="366.07347876004593" height="130" as="geometry" />
        </mxCell>
        <mxCell id="jjocSROBNCPPTaDp25RM-98" style="edgeStyle=orthogonalEdgeStyle;rounded=0;orthogonalLoop=1;jettySize=auto;html=1;entryX=0.5;entryY=1;entryDx=0;entryDy=0;startArrow=none;startFill=0;exitX=0.5;exitY=0;exitDx=0;exitDy=0;exitPerimeter=0;" edge="1" parent="jjocSROBNCPPTaDp25RM-99" source="jjocSROBNCPPTaDp25RM-67" target="jjocSROBNCPPTaDp25RM-95">
          <mxGeometry relative="1" as="geometry" />
        </mxCell>
      </root>
    </mxGraphModel>
  </diagram>
</mxfile>
